<svg width="96" height="96" viewBox="0 0 96 96" fill="none" xmlns="http://www.w3.org/2000/svg">
<rect width="96" height="96" rx="8" fill="#0D2167"/>
<path d="M50.0966 18.148C50.9027 17.7005 51.8867 17.7005 52.6928 18.148L58.6484 21.454C59.4832 21.9174 60 22.7898 60 23.7358V30.2264C60 31.1724 59.4832 32.0448 58.6484 32.5082L52.6928 35.8142C51.8867 36.2617 50.9027 36.2617 50.0966 35.8142L44.1411 32.5082C43.3062 32.0448 42.7894 31.1724 42.7894 30.2264V23.7358C42.7894 22.7898 43.3062 21.9174 44.1411 21.454L50.0966 18.148Z" fill="url(#paint0_linear_11_2)"/>
<path d="M43.9818 3.62118C46.4136 2.22352 50.2087 3.62118 50.2087 3.62118C50.2087 3.62118 44.3807 16.8518 46.8965 18.148C42.0504 20.229 40.2311 24.0651 41.1996 27.1782C38.0033 22.814 37.5495 18.8563 43.9818 3.62118Z" fill="url(#paint1_linear_11_2)"/>
<path d="M36.96 53.0909C26.3178 49.7614 22.4086 48.5629 18.2793 51.7822C9.79653 58.3955 12.8473 68.9265 18.2793 75.601C25.1686 82.6681 31.0712 81.6777 41.1996 82.0137C45.8366 82.0137 47.1389 87.1165 46.8965 92.2218C48.2548 93.3121 49.5187 93.2054 52.3285 92.2218C53.641 86.9784 53.1234 84.1077 50.2087 79.3963C45.7041 74.4231 41.1996 74.2922 33.6478 73.2453C24.6387 70.8896 20.7966 66.4399 22.9164 61.5976C25.9636 58.195 30.5196 60.3248 34.9727 62.5137C34.3142 57.1044 34.1961 55.1095 36.96 53.0909Z" fill="url(#paint2_linear_11_2)"/>
<path d="M43.5573 50.7913C44.456 50.2984 45.544 50.2984 46.4427 50.7913L52.1029 53.8958C53.0633 54.4226 53.6603 55.4308 53.6603 56.5262V62.4738C53.6603 63.5692 53.0633 64.5774 52.1029 65.1042L46.4427 68.2087C45.544 68.7016 44.456 68.7016 43.5573 68.2087L37.8971 65.1042C36.9367 64.5774 36.3397 63.5692 36.3397 62.4738V56.5262C36.3397 55.4308 36.9367 54.4226 37.8971 53.8958L43.5573 50.7913Z" fill="#0062D6"/>
<path d="M72.572 34.7729C73.4629 34.2907 74.5371 34.2907 75.428 34.7729L79.3562 36.8991C80.3248 37.4234 80.9282 38.4362 80.9282 39.5375V43.4625C80.9282 44.5638 80.3248 45.5766 79.3562 46.1009L75.428 48.2271C74.5371 48.7093 73.4629 48.7093 72.572 48.2271L68.6438 46.1009C67.6752 45.5766 67.0718 44.5638 67.0718 43.4625V39.5375C67.0718 38.4362 67.6752 37.4234 68.6438 36.8991L72.572 34.7729Z" fill="#A1CCFF"/>
<path d="M66.5967 13.7427C67.4746 13.2781 68.5254 13.2781 69.4033 13.7427L71.5995 14.905C72.5817 15.4248 73.1962 16.4451 73.1962 17.5565V19.4435C73.1962 20.5549 72.5817 21.5752 71.5995 22.095L69.4033 23.2573C68.5254 23.7219 67.4746 23.7219 66.5967 23.2573L64.4005 22.095C63.4183 21.5752 62.8038 20.5549 62.8038 19.4435V17.5565C62.8038 16.4451 63.4183 15.4248 64.4005 14.905L66.5967 13.7427Z" fill="#5B96DB"/>
<path d="M69 49.866C69.9282 49.3301 71.0718 49.3301 72 49.866L74.6292 51.384C75.5574 51.9199 76.1292 52.9103 76.1292 53.9821V57.0179C76.1292 58.0897 75.5574 59.0801 74.6292 59.616L72 61.134C71.0718 61.6699 69.9282 61.6699 69 61.134L66.3708 59.616C65.4426 59.0801 64.8708 58.0897 64.8708 57.0179V53.9821C64.8708 52.9103 65.4426 51.9199 66.3708 51.384L69 49.866Z" fill="#6DADF8"/>
<path d="M62.5 62.5774C63.1188 62.2201 63.8812 62.2201 64.5 62.5774L67.2631 64.1726C67.8819 64.5299 68.2631 65.1902 68.2631 65.9047V69.0953C68.2631 69.8098 67.8819 70.4701 67.2631 70.8274L64.5 72.4226C63.8812 72.7799 63.1188 72.7799 62.5 72.4226L59.7369 70.8274C59.1181 70.4701 58.7369 69.8098 58.7369 69.0953V65.9047C58.7369 65.1902 59.1181 64.5299 59.7369 64.1726L62.5 62.5774Z" fill="#6DADF8"/>
<path d="M58.5389 54.2396C58.828 54.0894 59.172 54.0894 59.4611 54.2396L62.7912 55.97C63.1223 56.142 63.3301 56.4842 63.3301 56.8573V60.1427C63.3301 60.5158 63.1223 60.858 62.7912 61.03L59.4611 62.7604C59.172 62.9106 58.828 62.9106 58.5389 62.7604L55.2088 61.03C54.8777 60.858 54.6699 60.5158 54.6699 60.1427V56.8573C54.6699 56.4842 54.8777 56.142 55.2088 55.97L58.5389 54.2396Z" fill="#2974CD"/>
<path d="M52.5 67.5774C53.1188 67.2201 53.8812 67.2201 54.5 67.5774L56.3971 68.6726C57.0159 69.0299 57.3971 69.6902 57.3971 70.4047V72.5953C57.3971 73.3098 57.0159 73.9701 56.3971 74.3274L54.5 75.4226C53.8812 75.7799 53.1188 75.7799 52.5 75.4226L50.6029 74.3274C49.9841 73.9701 49.6029 73.3098 49.6029 72.5953V70.4047C49.6029 69.6902 49.9841 69.0299 50.6029 68.6726L52.5 67.5774Z" fill="#0062D6"/>
<path d="M61.5 45.2887C61.8094 45.11 62.1906 45.11 62.5 45.2887L64.0981 46.2113C64.4075 46.39 64.5981 46.7201 64.5981 47.0774V48.9226C64.5981 49.2799 64.4075 49.61 64.0981 49.7887L62.5 50.7113C62.1906 50.89 61.8094 50.89 61.5 50.7113L59.9019 49.7887C59.5925 49.61 59.4019 49.2799 59.4019 48.9226V47.0774C59.4019 46.7201 59.5925 46.39 59.9019 46.2113L61.5 45.2887Z" fill="#2974CD"/>
<path d="M58 13.2887C58.3094 13.11 58.6906 13.11 59 13.2887L61.0311 14.4613C61.3405 14.64 61.5311 14.9701 61.5311 15.3274V17.6726C61.5311 18.0299 61.3405 18.36 61.0311 18.5387L59 19.7113C58.6906 19.89 58.3094 19.89 58 19.7113L55.9689 18.5387C55.6595 18.36 55.4689 18.0299 55.4689 17.6726V15.3274C55.4689 14.9701 55.6595 14.64 55.9689 14.4613L58 13.2887Z" fill="#2974CD"/>
<path d="M50 38.866C50.9282 38.3301 52.0718 38.3301 53 38.866L55.6292 40.384C56.5574 40.9199 57.1292 41.9103 57.1292 42.9821V46.0179C57.1292 47.0897 56.5574 48.0801 55.6292 48.616L53 50.134C52.0718 50.6699 50.9282 50.6699 50 50.134L47.3708 48.616C46.4426 48.0801 45.8708 47.0897 45.8708 46.0179V42.9821C45.8708 41.9103 46.4426 40.9199 47.3708 40.384L50 38.866Z" fill="#0062D6"/>
<path d="M60 32.5774C60.6188 32.2201 61.3812 32.2201 62 32.5774L64.3301 33.9226C64.9489 34.2799 65.3301 34.9402 65.3301 35.6547V38.3453C65.3301 39.0598 64.9489 39.7201 64.3301 40.0774L62 41.4227C61.3812 41.7799 60.6188 41.7799 60 41.4226L57.6699 40.0774C57.0511 39.7201 56.6699 39.0598 56.6699 38.3453V35.6547C56.6699 34.9402 57.0511 34.2799 57.6699 33.9226L60 32.5774Z" fill="#2974CD"/>
<path d="M64.5 25.2887C64.8094 25.11 65.1906 25.11 65.5 25.2887L67.9641 26.7113C68.2735 26.89 68.4641 27.2201 68.4641 27.5774V30.4226C68.4641 30.7799 68.2735 31.11 67.9641 31.2887L65.5 32.7113C65.1906 32.89 64.8094 32.89 64.5 32.7113L62.0359 31.2887C61.7265 31.11 61.5359 30.7799 61.5359 30.4226V27.5774C61.5359 27.2201 61.7265 26.89 62.0359 26.7113L64.5 25.2887Z" fill="#5B96DB"/>
<path d="M73 23.5774C73.6188 23.2201 74.3812 23.2201 75 23.5774L77.3301 24.9226C77.9489 25.2799 78.3301 25.9402 78.3301 26.6547V29.3453C78.3301 30.0598 77.9489 30.7201 77.3301 31.0774L75 32.4227C74.3812 32.7799 73.6188 32.7799 73 32.4226L70.6699 31.0774C70.0511 30.7201 69.6699 30.0598 69.6699 29.3453V26.6547C69.6699 25.9402 70.0511 25.2799 70.6699 24.9226L73 23.5774Z" fill="#6DADF8"/>
<circle cx="56.5" cy="51.5" r="1.5" fill="#0062D6"/>
<circle cx="56" cy="65" r="2" fill="#0062D6"/>
<circle cx="71" cy="65" r="1" fill="#A1CCFF"/>
<circle cx="80" cy="33" r="1" fill="#A1CCFF"/>
<circle cx="59" cy="74" r="1" fill="#2974CD"/>
<ellipse cx="46" cy="71.5" rx="1" ry="1.5" fill="#0062D6"/>
<circle cx="75" cy="21" r="1" fill="#6DADF8"/>
<circle cx="47" cy="38" r="1" fill="#0062D6"/>
<circle cx="62.5" cy="23.5" r="1.5" fill="#2974CD"/>
<circle cx="61.5" cy="13.5" r="0.5" fill="#2974CD"/>
<circle cx="78.5" cy="50.5" r="0.5" fill="#A1CCFF"/>
<defs>
<linearGradient id="paint0_linear_11_2" x1="36.5" y1="3" x2="36.5" y2="93" gradientUnits="userSpaceOnUse">
<stop stop-color="#0062D6"/>
<stop offset="0.6125" stop-color="#0062D6"/>
<stop offset="1" stop-color="#A1CCFF"/>
</linearGradient>
<linearGradient id="paint1_linear_11_2" x1="36.5" y1="3" x2="36.5" y2="93" gradientUnits="userSpaceOnUse">
<stop stop-color="#0062D6"/>
<stop offset="0.6125" stop-color="#0062D6"/>
<stop offset="1" stop-color="#A1CCFF"/>
</linearGradient>
<linearGradient id="paint2_linear_11_2" x1="36.5" y1="3" x2="36.5" y2="93" gradientUnits="userSpaceOnUse">
<stop stop-color="#0062D6"/>
<stop offset="0.6125" stop-color="#0062D6"/>
<stop offset="1" stop-color="#A1CCFF"/>
</linearGradient>
</defs>
</svg>
